#Comment line ignore any data following # character 
#Hierarchical Translation and Rotation (.htr) file 
[Header]	
#Header keywords are followed by a single value 
FileType HTR		#Single word string
DataType HTRS		#Translation followed by rotation and scale data
FileVersion 1		#integer
NumSegments 84		#integer
NumFrames 2		#integer
DataFrameRate 30		#integer, data frame rate in this file
EulerRotationOrder ZYX
CalibrationUnits mm
RotationUnits Degrees
GlobalAxisofGravity Y
BoneLengthAxis Y
ScaleFactor 1.00
[SegmentNames&Hierarchy]
#CHILD	PARENT
MASTER GLOBAL
root MASTER
chest root
L_mid_tent01 root
R_mid_tent01 root
spine01 root
Bip01_Neck chest
L_humerus chest
R_humerus chest
weapon_bone chest
Bip01_Head Bip01_Neck
eye_left_bone Bip01_Head
eye_right_bone Bip01_Head
L_forearm L_humerus
L_front_hand L_forearm
L_weapon_bone L_forearm
L_front_hand01_01 L_front_hand
L_front_hand02_01 L_front_hand
L_front_hand03_01 L_front_hand
L_front_hand01_02 L_front_hand01_01
L_front_hand02_02 L_front_hand02_01
L_front_hand03_02 L_front_hand03_01
R_forearm R_humerus
R_front_hand R_forearm
R_weapon_bone R_forearm
R_front_hand01_01 R_front_hand
R_front_hand02_01 R_front_hand
R_front_hand03_01 R_front_hand
R_front_hand01_02 R_front_hand01_01
R_front_hand02_02 R_front_hand02_01
R_front_hand03_02 R_front_hand03_01
null_rope01_connect L_mid_tent01
Rope1_Seg01 null_rope01_connect
Rope1_Seg02 Rope1_Seg01
Rope1_Seg03 Rope1_Seg02
Rope1_Seg04 Rope1_Seg03
Rope1_Seg05 Rope1_Seg04
Rope1_Seg06 Rope1_Seg05
Rope1_Seg07 Rope1_Seg06
Rope1_Seg09 Rope1_Seg07
L_mid_hand01 Rope1_Seg09
L_mid_hand02 Rope1_Seg09
L_mid_hand03 Rope1_Seg09
null_rope02_connect R_mid_tent01
Rope2_Seg01 null_rope02_connect
Rope2_Seg02 Rope2_Seg01
Rope2_Seg03 Rope2_Seg02
Rope2_Seg04 Rope2_Seg03
Rope2_Seg05 Rope2_Seg04
Rope2_Seg06 Rope2_Seg05
Rope2_Seg07 Rope2_Seg06
Rope2_Seg09 Rope2_Seg07
R_mid_hand01 Rope2_Seg09
R_mid_hand02 Rope2_Seg09
R_mid_hand03 Rope2_Seg09
spine02 spine01
spine03 spine02
pelvis spine03
null_rope03_connect pelvis
null_rope04_connect pelvis
Rope3_Seg01 null_rope03_connect
Rope3_Seg02 Rope3_Seg01
Rope3_Seg03 Rope3_Seg02
Rope3_Seg04 Rope3_Seg03
Rope3_Seg05 Rope3_Seg04
Rope3_Seg06 Rope3_Seg05
Rope3_Seg07 Rope3_Seg06
Rope3_Seg08 Rope3_Seg07
Rope3_Seg09 Rope3_Seg08
R_rear_hand01 Rope3_Seg09
R_rear_hand02 Rope3_Seg09
R_rear_hand03 Rope3_Seg09
Rope4_Seg01 null_rope04_connect
Rope4_Seg02 Rope4_Seg01
Rope4_Seg03 Rope4_Seg02
Rope4_Seg04 Rope4_Seg03
Rope4_Seg05 Rope4_Seg04
Rope4_Seg06 Rope4_Seg05
Rope4_Seg07 Rope4_Seg06
Rope4_Seg08 Rope4_Seg07
Rope4_Seg09 Rope4_Seg08
L_rear_hand01 Rope4_Seg09
L_rear_hand02 Rope4_Seg09
L_rear_hand03 Rope4_Seg09
[BasePosition]
#SegmentName Tx, Ty, Tz, Rx, Ry, Rz, BoneLength
MASTER 0.000000 0.000000 0.000000 -90.000000 0.000000 0.000000 10.000000 
root 0.000000 0.000000 0.000000 0.000000 0.000000 0.000000 10.000000 
chest 0.000000 0.000000 0.000000 0.000000 0.000000 0.000000 10.000000 
L_mid_tent01 0.000000 0.000000 0.000000 0.000000 0.000000 0.000000 10.000000 
R_mid_tent01 0.000000 0.000000 0.000000 0.000000 0.000000 0.000000 10.000000 
spine01 0.000000 0.000000 0.000000 0.000000 0.000000 0.000000 10.000000 
Bip01_Neck 0.000000 0.000000 0.000000 0.000000 0.000000 0.000000 10.000000 
L_humerus 0.000000 0.000000 0.000000 0.000000 0.000000 0.000000 10.000000 
R_humerus 0.000000 0.000000 0.000000 0.000000 0.000000 0.000000 10.000000 
weapon_bone 0.000000 0.000000 0.000000 0.000000 0.000000 0.000000 10.000000 
Bip01_Head 0.000000 0.000000 0.000000 0.000000 0.000000 0.000000 10.000000 
eye_left_bone 0.000000 0.000000 0.000000 0.000000 0.000000 0.000000 10.000000 
eye_right_bone 0.000000 0.000000 0.000000 0.000000 0.000000 0.000000 10.000000 
L_forearm 0.000000 0.000000 0.000000 0.000000 0.000000 0.000000 10.000000 
L_front_hand 0.000000 0.000000 0.000000 0.000000 0.000000 0.000000 10.000000 
L_weapon_bone 0.000000 0.000000 0.000000 0.000000 0.000000 0.000000 10.000000 
L_front_hand01_01 0.000000 0.000000 0.000000 0.000000 0.000000 0.000000 10.000000 
L_front_hand02_01 0.000000 0.000000 0.000000 0.000000 0.000000 0.000000 10.000000 
L_front_hand03_01 0.000000 0.000000 0.000000 0.000000 0.000000 0.000000 10.000000 
L_front_hand01_02 0.000000 0.000000 0.000000 0.000000 0.000000 0.000000 10.000000 
L_front_hand02_02 0.000000 0.000000 0.000000 0.000000 0.000000 0.000000 10.000000 
L_front_hand03_02 0.000000 0.000000 0.000000 0.000000 0.000000 0.000000 10.000000 
R_forearm 0.000000 0.000000 0.000000 0.000000 0.000000 0.000000 10.000000 
R_front_hand 0.000000 0.000000 0.000000 0.000000 0.000000 0.000000 10.000000 
R_weapon_bone 0.000000 0.000000 0.000000 0.000000 0.000000 0.000000 10.000000 
R_front_hand01_01 0.000000 0.000000 0.000000 0.000000 0.000000 0.000000 10.000000 
R_front_hand02_01 0.000000 0.000000 0.000000 0.000000 0.000000 0.000000 10.000000 
R_front_hand03_01 0.000000 0.000000 0.000000 0.000000 0.000000 0.000000 10.000000 
R_front_hand01_02 0.000000 0.000000 0.000000 0.000000 0.000000 0.000000 10.000000 
R_front_hand02_02 0.000000 0.000000 0.000000 0.000000 0.000000 0.000000 10.000000 
R_front_hand03_02 0.000000 0.000000 0.000000 0.000000 0.000000 0.000000 10.000000 
null_rope01_connect 0.000000 0.000000 0.000000 0.000000 0.000000 0.000000 10.000000 
Rope1_Seg01 0.000000 0.000000 0.000000 0.000000 0.000000 0.000000 10.000000 
Rope1_Seg02 0.000000 0.000000 0.000000 0.000000 0.000000 0.000000 10.000000 
Rope1_Seg03 0.000000 0.000000 0.000000 0.000000 0.000000 0.000000 10.000000 
Rope1_Seg04 0.000000 0.000000 0.000000 0.000000 0.000000 0.000000 10.000000 
Rope1_Seg05 0.000000 0.000000 0.000000 0.000000 0.000000 0.000000 10.000000 
Rope1_Seg06 0.000000 0.000000 0.000000 0.000000 0.000000 0.000000 10.000000 
Rope1_Seg07 0.000000 0.000000 0.000000 0.000000 0.000000 0.000000 10.000000 
Rope1_Seg09 0.000000 0.000000 0.000000 0.000000 0.000000 0.000000 10.000000 
L_mid_hand01 0.000000 0.000000 0.000000 0.000000 0.000000 0.000000 10.000000 
L_mid_hand02 0.000000 0.000000 0.000000 0.000000 0.000000 0.000000 10.000000 
L_mid_hand03 0.000000 0.000000 0.000000 0.000000 0.000000 0.000000 10.000000 
null_rope02_connect 0.000000 0.000000 0.000000 0.000000 0.000000 0.000000 10.000000 
Rope2_Seg01 0.000000 0.000000 0.000000 0.000000 0.000000 0.000000 10.000000 
Rope2_Seg02 0.000000 0.000000 0.000000 0.000000 0.000000 0.000000 10.000000 
Rope2_Seg03 0.000000 0.000000 0.000000 0.000000 0.000000 0.000000 10.000000 
Rope2_Seg04 0.000000 0.000000 0.000000 0.000000 0.000000 0.000000 10.000000 
Rope2_Seg05 0.000000 0.000000 0.000000 0.000000 0.000000 0.000000 10.000000 
Rope2_Seg06 0.000000 0.000000 0.000000 0.000000 0.000000 0.000000 10.000000 
Rope2_Seg07 0.000000 0.000000 0.000000 0.000000 0.000000 0.000000 10.000000 
Rope2_Seg09 0.000000 0.000000 0.000000 0.000000 0.000000 0.000000 10.000000 
R_mid_hand01 0.000000 0.000000 0.000000 0.000000 0.000000 0.000000 10.000000 
R_mid_hand02 0.000000 0.000000 0.000000 0.000000 0.000000 0.000000 10.000000 
R_mid_hand03 0.000000 0.000000 0.000000 0.000000 0.000000 0.000000 10.000000 
spine02 0.000000 0.000000 0.000000 0.000000 0.000000 0.000000 10.000000 
spine03 0.000000 0.000000 0.000000 0.000000 0.000000 0.000000 10.000000 
pelvis 0.000000 0.000000 0.000000 0.000000 0.000000 0.000000 10.000000 
null_rope03_connect 0.000000 0.000000 0.000000 0.000000 0.000000 0.000000 10.000000 
null_rope04_connect 0.000000 0.000000 0.000000 0.000000 0.000000 0.000000 10.000000 
Rope3_Seg01 0.000000 0.000000 0.000000 0.000000 0.000000 0.000000 10.000000 
Rope3_Seg02 0.000000 0.000000 0.000000 0.000000 0.000000 0.000000 10.000000 
Rope3_Seg03 0.000000 0.000000 0.000000 0.000000 0.000000 0.000000 10.000000 
Rope3_Seg04 0.000000 0.000000 0.000000 0.000000 0.000000 0.000000 10.000000 
Rope3_Seg05 0.000000 0.000000 0.000000 0.000000 0.000000 0.000000 10.000000 
Rope3_Seg06 0.000000 0.000000 0.000000 0.000000 0.000000 0.000000 10.000000 
Rope3_Seg07 0.000000 0.000000 0.000000 0.000000 0.000000 0.000000 10.000000 
Rope3_Seg08 0.000000 0.000000 0.000000 0.000000 0.000000 0.000000 10.000000 
Rope3_Seg09 0.000000 0.000000 0.000000 0.000000 0.000000 0.000000 10.000000 
R_rear_hand01 0.000000 0.000000 0.000000 0.000000 0.000000 0.000000 10.000000 
R_rear_hand02 0.000000 0.000000 0.000000 0.000000 0.000000 0.000000 10.000000 
R_rear_hand03 0.000000 0.000000 0.000000 0.000000 0.000000 0.000000 10.000000 
Rope4_Seg01 0.000000 0.000000 0.000000 0.000000 0.000000 0.000000 10.000000 
Rope4_Seg02 0.000000 0.000000 0.000000 0.000000 0.000000 0.000000 10.000000 
Rope4_Seg03 0.000000 0.000000 0.000000 0.000000 0.000000 0.000000 10.000000 
Rope4_Seg04 0.000000 0.000000 0.000000 0.000000 0.000000 0.000000 10.000000 
Rope4_Seg05 0.000000 0.000000 0.000000 0.000000 0.000000 0.000000 10.000000 
Rope4_Seg06 0.000000 0.000000 0.000000 0.000000 0.000000 0.000000 10.000000 
Rope4_Seg07 0.000000 0.000000 0.000000 0.000000 0.000000 0.000000 10.000000 
Rope4_Seg08 0.000000 0.000000 0.000000 0.000000 0.000000 0.000000 10.000000 
Rope4_Seg09 0.000000 0.000000 0.000000 0.000000 0.000000 0.000000 10.000000 
L_rear_hand01 0.000000 0.000000 0.000000 0.000000 0.000000 0.000000 10.000000 
L_rear_hand02 0.000000 0.000000 0.000000 0.000000 0.000000 0.000000 10.000000 
L_rear_hand03 0.000000 0.000000 0.000000 0.000000 0.000000 0.000000 10.000000 
#Beginning of Data. Separated by tabs
#Fr	Tx	Ty	Tz	Rx	Ry	Rz	SF
[MASTER]
15 4042.493408 0.000610 0.000000 0.001887 0.001395 17.042957 4042.493408
16 4213.545898 0.000636 0.000000 0.001898 0.001381 17.918636 4213.545898
[root]
15 -87.767029 -63.171841 963.575684 -88.859978 -39.688969 -97.897408 969.624512
16 -78.858864 -63.128048 1034.881958 -89.872047 -36.097023 -97.276764 1039.800171
[chest]
15 -84.512650 -34.090519 0.000000 -2.844013 19.468872 171.492767 91.129311
16 -84.512650 -34.090519 0.000000 -3.863255 21.158796 165.383942 91.129311
[L_mid_tent01]
15 27.299644 22.177504 -249.918091 1.515832 34.863998 55.077641 252.380981
16 27.299660 22.177504 -249.918106 1.939553 36.164452 57.976643 252.381012
[R_mid_tent01]
15 23.228794 24.509907 226.238495 154.309692 -24.299099 92.458633 228.744751
16 23.228794 24.509907 226.238495 154.381256 -27.149143 92.438416 228.744751
[spine01]
15 -0.361383 -0.195265 0.000000 0.086469 0.393016 12.650801 0.410763
16 -0.361383 -0.195265 0.000000 0.010648 0.382878 12.422418 0.410763
[Bip01_Neck]
15 165.484543 71.581718 0.000119 175.896118 1.177290 24.871183 180.302734
16 165.484543 71.581718 0.000119 175.896118 1.177290 24.871183 180.302734
[L_humerus]
15 -13.983130 -135.272980 -120.471481 173.488800 81.605484 -97.074348 181.680161
16 -13.983130 -135.272980 -120.471481 171.625458 81.577759 -98.619453 181.680161
[R_humerus]
15 -13.983309 -135.273102 125.287651 -160.747177 -69.026520 -100.495163 184.909012
16 -13.983309 -135.273102 125.287651 -159.952133 -68.974831 -100.989449 184.909012
[weapon_bone]
15 235.964890 -300.705902 0.000000 0.000000 -89.951546 -128.212341 382.234833
16 235.964890 -300.705902 0.000000 0.000000 -89.951546 -128.212341 382.234833
[Bip01_Head]
15 255.773163 61.935463 11.219788 0.426103 3.598266 -73.953026 263.404236
16 252.188354 69.328262 12.034307 -0.091596 3.868474 -72.827583 261.820923
[eye_left_bone]
15 -24.626970 125.451866 -64.772606 0.000000 -90.000000 -99.840431 143.318359
16 -24.626970 125.451866 -64.772606 0.000000 -90.000000 -99.840431 143.318359
[eye_right_bone]
15 -24.626970 125.451866 64.327362 0.000000 -89.960434 80.159386 143.117676
16 -24.626970 125.451866 64.327362 0.000000 -89.960434 80.159386 143.117676
[L_forearm]
15 322.776093 0.000000 -0.000119 0.000250 0.002334 -77.779404 322.776093
16 322.776093 0.000000 -0.000119 0.000216 0.002337 -79.434814 322.776093
[L_front_hand]
15 241.149185 -0.042021 -3.300071 -178.313110 -1.514497 -39.457478 241.171753
16 241.149185 -0.042021 -3.300071 -178.163986 -1.330197 -45.399757 241.171753
[L_weapon_bone]
15 156.183838 0.000000 0.000000 0.001898 0.001381 17.923637 156.183838
16 156.183838 0.000000 0.000000 0.001850 0.001445 14.018026 156.183838
[L_front_hand01_01]
15 86.095154 20.947098 -0.655860 0.405585 -0.442306 -4.620490 88.609184
16 86.095154 20.947098 -0.655860 0.405585 -0.442306 -4.620490 88.609184
[L_front_hand02_01]
15 86.935165 -11.437475 24.513514 116.959450 3.630817 1.495453 91.046425
16 86.935165 -11.437475 24.513514 116.959450 3.630817 1.495453 91.046425
[L_front_hand03_01]
15 86.637497 -14.123976 -20.424902 -118.420097 -4.656303 -0.152527 90.126129
16 86.637497 -14.123976 -20.424902 -118.420097 -4.656303 -0.152527 90.126129
[L_front_hand01_02]
15 71.020905 -0.000179 0.000030 0.001534 0.001777 -8.378850 71.020905
16 71.020905 -0.000179 0.000030 0.001534 0.001777 -8.378850 71.020905
[L_front_hand02_02]
15 71.020927 -0.000119 0.000060 0.001534 0.001777 -8.378850 71.020927
16 71.020927 -0.000119 0.000060 0.001534 0.001777 -8.378850 71.020927
[L_front_hand03_02]
15 71.020905 -0.000060 0.000060 0.001534 0.001777 -8.378850 71.020905
16 71.020905 -0.000060 0.000060 0.001534 0.001777 -8.378850 71.020905
[R_forearm]
15 322.776428 -0.000060 0.000030 0.200078 -0.074598 -70.489418 322.776428
16 322.776428 -0.000060 0.000030 0.201347 -0.069246 -71.577744 322.776428
[R_front_hand]
15 238.847015 -0.006795 2.210259 -1.729272 -0.004042 -78.816765 238.857239
16 238.847015 -0.006795 2.210259 -1.702877 -0.301883 -88.818420 238.857239
[R_weapon_bone]
15 155.664093 0.002503 -0.000030 0.003137 0.001925 -116.678535 155.664078
16 155.664093 0.002503 -0.000030 0.003223 0.001778 -111.371422 155.664078
[R_front_hand01_01]
15 87.624611 14.231146 22.918642 -116.960213 3.496675 -1.324139 91.683487
16 87.624611 14.231146 22.918642 -116.960213 3.496675 -1.324139 91.683487
[R_front_hand02_01]
15 89.356956 14.367283 -19.491137 118.419647 -4.257089 0.609827 92.579636
16 89.356956 14.367283 -19.491137 118.419647 -4.257089 0.609827 92.579636
[R_front_hand03_01]
15 87.286232 -22.307278 -0.143439 -0.387970 -0.231462 4.232001 90.091743
16 87.286232 -22.307278 -0.143439 -0.387970 -0.231462 4.232001 90.091743
[R_front_hand01_02]
15 71.020905 0.000060 0.000119 0.001777 0.001534 8.377220 71.020905
16 71.020905 0.000060 0.000119 0.001777 0.001534 8.377220 71.020905
[R_front_hand02_02]
15 71.020844 -0.000030 -0.000119 0.001777 0.001534 8.377220 71.020836
16 71.020844 -0.000030 -0.000119 0.001777 0.001534 8.377220 71.020836
[R_front_hand03_02]
15 71.020905 0.000000 0.000030 0.001777 0.001534 8.377220 71.020905
16 71.020905 0.000000 0.000030 0.001777 0.001534 8.377220 71.020905
[null_rope01_connect]
15 328.732483 0.000000 -0.000238 -105.514748 -64.901642 -179.058350 328.732483
16 328.732483 0.000000 -0.000238 -115.056343 -63.793476 -175.140320 328.732483
[Rope1_Seg01]
15 0.000000 0.000000 0.000000 142.607208 51.313198 176.756699 0.000000
16 0.000000 0.000000 0.000000 135.469620 52.569065 166.762192 0.000000
[Rope1_Seg02]
15 139.999863 -0.000179 0.000000 -2.358747 -6.899673 12.562407 139.999863
16 139.999863 -0.000179 0.000000 -0.977399 -7.693931 9.874443 139.999863
[Rope1_Seg03]
15 139.999924 0.000060 -0.000060 -2.654808 -4.001939 17.691587 139.999924
16 139.999924 0.000060 -0.000060 -1.686566 -8.207991 15.416761 139.999924
[Rope1_Seg04]
15 139.999924 -0.000060 -0.000119 -2.728690 -17.651573 14.902196 139.999924
16 139.999924 -0.000060 -0.000119 -2.160468 -14.511328 17.404240 139.999924
[Rope1_Seg05]
15 139.999832 0.000119 -0.000060 -6.990435 -20.074589 2.020378 139.999832
16 139.999832 0.000119 -0.000060 -8.300920 -19.171894 1.717780 139.999832
[Rope1_Seg06]
15 139.999954 0.000119 -0.000060 -3.161578 -6.781488 0.868042 139.999954
16 139.999954 0.000119 -0.000060 -4.245946 -6.978753 -0.076490 139.999954
[Rope1_Seg07]
15 139.999985 0.000060 0.000000 -2.018690 -3.732469 0.344591 139.999985
16 139.999985 0.000060 0.000000 -2.350876 -3.569126 0.065018 139.999985
[Rope1_Seg09]
15 121.602913 0.000119 -0.000089 -89.793175 -1.359789 0.847147 121.602913
16 121.602913 0.000119 -0.000089 -89.793175 -1.359789 0.847147 121.602913
[L_mid_hand01]
15 103.859421 1.038730 8.195221 104.445610 -6.473835 -2.195928 104.187431
16 103.859421 1.038730 8.195221 104.530579 -8.858539 -2.815847 104.187431
[L_mid_hand02]
15 105.572853 -4.139662 -10.864139 -136.174118 8.800051 -8.461067 106.211075
16 105.572853 -4.139662 -10.864139 -136.473404 10.500956 -10.268885 106.211075
[L_mid_hand03]
15 104.641464 17.579376 -3.913581 -18.668604 1.936286 9.605985 106.179977
16 104.641464 17.579376 -3.913581 -18.575745 2.721513 11.937086 106.179977
[null_rope02_connect]
15 328.732849 0.000179 -0.000119 -93.707253 45.308941 43.411095 328.732849
16 328.732849 0.000179 -0.000119 -98.166313 42.751591 42.501308 328.732849
[Rope2_Seg01]
15 -0.000055 0.000134 0.000153 -53.198341 14.272970 -6.455369 0.000210
16 -0.000053 0.000134 0.000153 -60.243828 20.772997 2.514636 0.000210
[Rope2_Seg02]
15 139.999741 -0.000060 -0.000119 -26.160149 -14.751235 44.163605 139.999756
16 139.999741 -0.000060 -0.000119 -20.384741 -19.537668 41.158649 139.999756
[Rope2_Seg03]
15 140.000107 0.000030 0.000000 -5.766176 -22.012678 29.168207 140.000107
16 140.000107 0.000030 0.000000 -2.538637 -17.548857 21.872387 140.000107
[Rope2_Seg04]
15 139.999802 0.000000 -0.000060 1.735913 -10.163828 11.322490 139.999802
16 139.999802 0.000000 -0.000060 1.641130 -8.846934 10.132801 139.999802
[Rope2_Seg05]
15 139.999985 -0.000060 0.000119 5.493826 -13.129930 14.735723 139.999985
16 139.999985 -0.000060 0.000119 5.145985 -12.240208 14.399033 139.999985
[Rope2_Seg06]
15 139.999893 -0.000030 -0.000119 13.257984 -9.627696 13.821628 139.999893
16 139.999893 -0.000030 -0.000119 13.477782 -10.118574 15.024864 139.999893
[Rope2_Seg07]
15 139.999893 0.000060 -0.000060 13.515507 -2.955820 8.008451 139.999893
16 139.999893 0.000060 -0.000060 14.065814 -3.049281 8.752476 139.999893
[Rope2_Seg09]
15 121.338966 0.000089 -0.000060 33.793236 -1.359788 -0.847141 121.338966
16 121.338966 0.000089 -0.000060 33.793236 -1.359788 -0.847141 121.338966
[R_mid_hand01]
15 104.680779 11.144459 -10.335981 -46.801640 8.973886 11.064841 105.778534
16 104.680779 11.144459 -10.335981 -46.526108 10.640026 12.655807 105.778534
[R_mid_hand02]
15 104.070427 2.443552 8.231699 75.403473 -10.192782 3.176561 104.424065
16 104.070427 2.443552 8.231699 75.284584 -12.403854 3.766673 104.424065
[R_mid_hand03]
15 106.028137 -11.221827 -5.996406 -164.874466 4.674486 -14.062467 106.788818
16 106.028137 -11.221827 -5.996406 -165.067444 5.264448 -16.276682 106.788818
[spine02]
15 129.756927 0.001550 0.000119 -0.121356 -4.068973 -6.129573 129.756927
16 129.756927 0.001550 0.000119 -0.107946 -4.045015 -6.321334 129.756927
[spine03]
15 78.882805 0.040436 -2.272949 1.769265 -0.001729 12.904973 78.915558
16 78.915657 0.034752 -1.952410 1.826421 -0.455117 14.573563 78.939812
[pelvis]
15 169.435242 0.051022 0.000000 42.343155 10.446104 -3.351524 169.435257
16 169.435242 0.051022 0.000000 25.418560 7.543475 -4.358355 169.435257
[null_rope03_connect]
15 -1.257226 -2.466202 137.391083 24.737110 -41.841599 87.594353 137.418976
16 -1.257226 -2.466202 137.391083 30.572412 -59.209961 77.396431 137.418976
[null_rope04_connect]
15 -1.259640 -2.480268 -137.844437 24.737110 -41.841599 87.594353 137.872513
16 -1.259640 -2.480268 -137.844437 30.572412 -59.209961 77.396431 137.872513
[Rope3_Seg01]
15 0.000000 0.000000 0.000000 -155.247116 -58.452473 -57.734039 0.000000
16 0.000000 0.000000 0.000000 -162.448135 -50.601429 -44.854828 0.000000
[Rope3_Seg02]
15 139.999924 -0.000119 0.000060 -19.505819 22.979504 -22.530233 139.999924
16 139.999924 -0.000119 0.000060 -24.428089 14.491016 -24.901346 139.999924
[Rope3_Seg03]
15 139.999924 -0.000119 0.000119 -7.705823 22.496202 -3.296789 139.999924
16 139.999924 -0.000119 0.000119 -15.634093 18.765486 -7.328402 139.999924
[Rope3_Seg04]
15 139.999924 0.000119 0.000000 -2.687603 10.368498 -3.680150 139.999924
16 139.999924 0.000119 0.000000 -7.897205 11.110368 -4.812824 139.999924
[Rope3_Seg05]
15 139.999924 -0.000238 0.000060 -8.539872 11.516736 -21.554197 139.999924
16 139.999924 -0.000238 0.000060 -19.901043 17.175987 -20.374594 139.999924
[Rope3_Seg06]
15 139.999893 -0.000119 -0.000060 -18.729807 15.402654 -27.954216 139.999893
16 139.999893 -0.000119 -0.000060 -19.810558 21.707607 -16.154764 139.999893
[Rope3_Seg07]
15 139.999771 0.000060 -0.000119 -7.862574 9.459855 -8.036745 139.999771
16 139.999771 0.000060 -0.000119 -4.964777 10.108962 -2.569791 139.999771
[Rope3_Seg08]
15 139.999985 -0.000060 0.000000 -3.368830 5.109565 -3.269307 139.999985
16 139.999985 -0.000060 0.000000 -1.776435 5.277739 -0.872461 139.999985
[Rope3_Seg09]
15 90.185997 -0.000179 -0.000060 89.793228 -1.359877 -0.847183 90.185997
16 90.185997 -0.000179 -0.000060 89.793228 -1.359877 -0.847183 90.185997
[R_rear_hand01]
15 103.366196 -6.073594 -10.757982 -156.260391 6.888772 -4.662050 104.101845
16 103.366196 -6.073594 -10.757982 -156.519684 7.778793 -6.714527 104.101845
[R_rear_hand02]
15 100.509819 12.039542 -7.992327 -38.633274 3.224904 7.045907 101.543350
16 100.509819 12.039542 -7.992327 -38.515537 4.609975 8.784945 101.543350
[R_rear_hand03]
15 101.539970 5.215704 5.435467 84.294777 -4.384002 4.300453 101.819031
16 101.539970 5.215704 5.435467 84.275841 -6.590108 4.520812 101.819031
[Rope4_Seg01]
15 -0.000014 -0.000034 -0.000153 44.093678 14.375999 -114.051292 0.000157
16 -0.000013 -0.000031 -0.000153 43.734409 7.391647 -120.653206 0.000156
[Rope4_Seg02]
15 139.999985 0.000060 0.000119 -2.737403 10.937988 -13.599437 139.999985
16 139.999985 0.000060 0.000119 -7.468303 4.733893 -20.884590 139.999985
[Rope4_Seg03]
15 139.999924 0.000000 -0.000238 -2.208632 19.512516 -17.852221 139.999924
16 139.999924 0.000000 -0.000238 -9.984813 12.687225 -20.959923 139.999924
[Rope4_Seg04]
15 139.999985 0.000000 0.000119 1.877849 15.500774 -11.910958 139.999985
16 139.999985 0.000000 0.000119 -5.284603 8.969051 -14.042457 139.999985
[Rope4_Seg05]
15 139.999802 -0.000060 -0.000119 2.676805 7.266250 -44.466000 139.999802
16 139.999802 -0.000060 -0.000119 -20.620890 4.748048 -51.112572 139.999802
[Rope4_Seg06]
15 139.999924 0.000000 0.000060 -6.165501 0.652923 -40.233688 139.999924
16 139.999924 0.000000 0.000060 -18.529058 12.494243 -31.692535 139.999924
[Rope4_Seg07]
15 139.999802 0.000000 0.000000 -3.144207 1.872474 -9.605898 139.999802
16 139.999802 0.000000 0.000000 -3.262955 5.438810 -6.288408 139.999802
[Rope4_Seg08]
15 139.999924 0.000000 0.000119 -2.985453 1.032957 -4.117762 139.999924
16 139.999924 0.000000 0.000119 -2.777163 2.613256 -2.714274 139.999924
[Rope4_Seg09]
15 90.185791 0.000060 0.000060 -135.617828 2.228885 0.850567 90.185791
16 90.185791 0.000060 0.000060 -135.617828 2.228885 0.850567 90.185791
[L_rear_hand01]
15 101.696655 -8.392275 -7.654577 -38.734707 -1.082930 175.627808 102.329041
16 101.696655 -8.392275 -7.654577 -38.676117 -2.543634 173.809082 102.329041
[L_rear_hand02]
15 102.726799 -1.568258 5.773216 84.315697 0.973563 176.040817 102.900848
16 102.726799 -1.568258 5.773216 84.302147 3.292158 175.808121 102.900848
[L_rear_hand03]
15 104.552910 9.721220 -10.420293 -155.919388 -5.502444 -178.482697 105.519653
16 104.552910 9.721220 -10.420293 -156.143280 -6.452847 -176.342621 105.519653
